<?xml version="1.0" encoding="UTF-8"?>
<svg id="Layer_2" data-name="Layer 2" xmlns="http://www.w3.org/2000/svg" viewBox="0 0 48 48">
  <defs>
    <style>
      .cls-1, .cls-2 {
        stroke-width: 0px;
      }

      .cls-2 {
        fill: #fcfcfc;
      }
    </style>
  </defs>
  <g id="Layer_1-2" data-name="Layer 1">
    <g>
      <path class="cls-2" d="m48,24c0,13.25-10.75,24-24,24S0,37.25,0,24,10.75,0,24,0s24,10.74,24,24Z"/>
      <path id="path9-5" class="cls-1" d="m13.37,22.74s.51,1.21.53,1.21c1.22,2.22,3.58,3.6,7.56,3.98-.57.43-1.25,1.25-1.34,2.19-.71.46-2.15.61-3.27.26-1.56-.49-2.16-3.59-4.5-3.15-.51.09-.41.43.03.71.71.46,1.39,1.04,1.9,2.27.4.94,1.24,2.63,3.88,2.63,1.05,0,1.79-.13,1.79-.13,0,0,.02,2.41.02,3.35,0,1.08-1.46,1.39-1.46,1.91,0,.21.48.22.87.22.77,0,2.36-.64,2.36-1.76,0-.89.01-3.89.01-4.42,0-1.15.62-1.51.62-1.51,0,0,.08,6.12-.15,6.95-.26.97-.73.83-.73,1.26,0,.64,1.92.16,2.56-1.25.49-1.09.28-7.1.28-7.1h.52s.03,2.74.01,4c-.02,1.3-.11,2.95.67,3.73.51.51,2.16,1.41,2.16.59,0-.48-.9-.87-.9-2.15v-5.93c.72,0,.61,1.95.61,1.95l.05,3.62s-.16,1.32,1.43,1.87c.56.2,1.76.25,1.81-.08.06-.33-1.44-.82-1.46-1.84,0-.62.03-.99.03-3.69s-.36-3.71-1.63-4.51c3.91-.4,6.33-1.37,7.51-3.96.09,0,.48-1.21.43-1.21.26-.98.41-2.13.44-3.5,0-3.72-1.78-5.03-2.13-5.65.5-2.81-.08-4.09-.36-4.53-1.01-.36-3.51.92-4.87,1.82-2.22-.65-6.93-.59-8.69.17-3.25-2.33-4.98-1.97-4.98-1.97,0,0-1.11,1.99-.29,4.91-1.07,1.36-1.87,2.33-1.87,4.89,0,1.44.17,2.73.55,3.86h0Z"/>
    </g>
  </g>
</svg>