<?xml version="1.0" encoding="UTF-8"?>
<svg id="Layer_2" data-name="Layer 2" xmlns="http://www.w3.org/2000/svg" viewBox="0 0 246.75 262.09">
  <defs>
    <style>
      .cls-1 {
        fill: #fff;
        stroke-width: 0px;
      }
    </style>
  </defs>
  <g id="Layer_1-2" data-name="Layer 1">
    <path class="cls-1" d="m223.64,0H23.11C10.35,0,0,10.35,0,23.11v215.88c0,12.76,10.35,23.11,23.11,23.11h200.54c12.76,0,23.11-10.35,23.11-23.11V23.11c0-12.76-10.35-23.11-23.11-23.11ZM71.49,215.51h-36.07v-117.69h36.07v117.69Zm-2.64-135.51c-4.01,3.73-9.11,5.59-15.29,5.59s-11.49-1.86-15.5-5.59c-4.01-3.72-6.01-8.33-6.01-13.81s2-10.3,6.01-14.03c4.01-3.72,9.17-5.59,15.5-5.59s11.28,1.87,15.29,5.59c4.01,3.73,6.01,8.4,6.01,14.03s-2,10.09-6.01,13.81Zm145.84,135.51h-35.85v-63.9c0-7.87-2.04-13.99-6.12-18.35-4.08-4.36-9.56-6.54-16.45-6.54s-12.37,2.18-16.45,6.54c-4.08,4.36-6.12,10.48-6.12,18.35v63.9h-36.07v-117.69h36.07v15.61c3.65-5.2,8.57-9.31,14.76-12.34,6.19-3.02,13.15-4.53,20.88-4.53,13.78,0,24.78,4.46,33.01,13.39,8.23,8.93,12.34,21.2,12.34,36.8v68.76Z"/>
  </g>
</svg>