<?xml version="1.0" encoding="UTF-8"?>
<svg id="Layer_2" data-name="Layer 2" xmlns="http://www.w3.org/2000/svg" viewBox="0 0 48 48">
  <defs>
    <style>
      .cls-1, .cls-2 {
        stroke-width: 0px;
      }

      .cls-2 {
        fill: #fff;
      }
    </style>
  </defs>
  <g id="Layer_1-2" data-name="Layer 1">
    <g>
      <path class="cls-2" d="m48,24c0,13.25-10.75,24-24,24S0,37.25,0,24,10.75,0,24,0s24,10.74,24,24Z"/>
      <g>
        <path class="cls-1" d="m15.67,28.73c.5,0,.96-.08,1.35-.25.4-.17.73-.41,1.01-.72.27-.31.48-.69.63-1.14.14-.45.22-.96.22-1.53v-9.6h3.76v9.6c0,.99-.16,1.91-.48,2.74-.32.83-.78,1.55-1.39,2.15-.6.6-1.33,1.07-2.19,1.4s-1.83.5-2.9.5-2.06-.17-2.92-.5c-.86-.33-1.59-.8-2.19-1.4-.6-.6-1.06-1.32-1.38-2.15-.32-.83-.48-1.74-.48-2.74v-9.6h3.76v9.59c0,.57.07,1.08.22,1.53.14.45.35.83.63,1.15.27.32.61.56,1.01.72.4.17.85.25,1.35.25Z"/>
        <path class="cls-1" d="m35.45,15.58c-3.17-.75-6.35.62-8.06,3.18l-1.18-3.27h-3.04l2.68,7.7-2.89,11.44h3.35s1.6-6.76,1.6-6.76c1.01,1.21,2.41,2.11,4.06,2.5,4.08.96,8.18-1.57,9.14-5.65.96-4.08-1.57-8.18-5.65-9.14Zm2.66,8.43c-.57,2.43-3.01,3.94-5.44,3.36-2.43-.57-3.94-3.01-3.36-5.44.57-2.43,3.01-3.94,5.44-3.36s3.94,3.01,3.36,5.44Z"/>
      </g>
    </g>
  </g>
</svg>