<?xml version="1.0" encoding="UTF-8"?>
<svg id="Layer_2" data-name="Layer 2" xmlns="http://www.w3.org/2000/svg" viewBox="0 0 48 48">
  <defs>
    <style>
      .cls-1 {
        fill: #fff;
      }
    </style>
  </defs>
  <g id="Layer_1-2" data-name="Layer 1">
    <g>
      <path class="cls-1" d="M48,24c0,13.25-10.75,24-24,24S0,37.25,0,24,10.75,0,24,0s24,10.74,24,24Z"/>
      <g>
        <path d="M14.73,29.14c.56,0,1.08-.09,1.51-.28.45-.19.82-.46,1.13-.81.3-.35.54-.77.71-1.28.16-.5.25-1.08.25-1.71v-10.76h4.21v10.76c0,1.11-.18,2.14-.54,3.07s-.87,1.74-1.56,2.41c-.67.67-1.49,1.2-2.45,1.57s-2.05.56-3.25.56-2.31-.19-3.27-.56c-.96-.37-1.78-.9-2.45-1.57s-1.19-1.48-1.55-2.41c-.36-.93-.54-1.95-.54-3.07v-10.76h4.21v10.74c0,.64.08,1.21.25,1.71.16.5.39.93.71,1.29.3.36.68.63,1.13.81.45.19.95.28,1.51.28h-.01Z"/>
        <path d="M37.78,14.41c-3.55-.84-7.11.69-9.03,3.56l-1.32-3.66h-3.41l3,8.63-3.24,12.82h3.75l1.79-7.57c1.13,1.36,2.7,2.36,4.55,2.8,4.57,1.08,9.17-1.76,10.24-6.33,1.08-4.57-1.76-9.17-6.33-10.24h-.01ZM40.76,23.85c-.64,2.72-3.37,4.41-6.1,3.76-2.72-.64-4.41-3.37-3.76-6.1.64-2.72,3.37-4.41,6.1-3.76s4.41,3.37,3.76,6.1Z"/>
      </g>
    </g>
  </g>
</svg>