<?xml version="1.0" encoding="UTF-8"?>
<svg id="Layer_2" data-name="Layer 2" xmlns="http://www.w3.org/2000/svg" viewBox="0 0 141.24 83.42">
  <defs>
    <style>
      .cls-1 {
        fill: #fff;
        stroke-width: 0px;
      }
    </style>
  </defs>
  <g id="Layer_1-2" data-name="Layer 1">
    <g>
      <path class="cls-1" d="m30.19,57.85c2.19,0,4.14-.36,5.86-1.08,1.72-.72,3.17-1.76,4.36-3.11,1.19-1.35,2.1-3,2.72-4.94.63-1.94.94-4.15.94-6.63V.46h16.3v41.62c0,4.31-.7,8.26-2.1,11.86-1.4,3.6-3.4,6.7-6,9.31-2.6,2.6-5.77,4.63-9.5,6.08s-7.93,2.17-12.59,2.17-8.91-.72-12.63-2.17c-3.73-1.45-6.9-3.47-9.5-6.08-2.6-2.6-4.6-5.71-5.98-9.31-1.38-3.6-2.07-7.55-2.07-11.86V.46h16.3v41.57c0,2.48.31,4.69.94,6.63.63,1.95,1.53,3.6,2.72,4.97,1.19,1.37,2.64,2.41,4.36,3.13,1.72.72,3.67,1.08,5.86,1.08Z"/>
      <path class="cls-1" d="m115.88.89c-13.73-3.24-27.52,2.67-34.94,13.76L75.84.46h-13.19l11.63,33.37-12.54,49.58h14.51s6.91-29.28,6.91-29.28c4.4,5.23,10.44,9.14,17.58,10.82,17.67,4.17,35.43-6.81,39.61-24.47S133.55,5.06,115.88.89Zm11.51,36.54c-2.48,10.52-13.06,17.06-23.58,14.57-10.52-2.48-17.05-13.06-14.57-23.58s13.06-17.05,23.58-14.57,17.05,13.06,14.57,23.58Z"/>
    </g>
  </g>
</svg>