<?xml version="1.0" encoding="UTF-8"?>
<svg id="Layer_2" data-name="Layer 2" xmlns="http://www.w3.org/2000/svg" viewBox="0 0 48 48">
  <defs>
    <style>
      .cls-1, .cls-2 {
        stroke-width: 0px;
      }

      .cls-2 {
        fill: #fff;
      }
    </style>
  </defs>
  <g id="Layer_1-2" data-name="Layer 1">
    <g>
      <path class="cls-2" d="m48,24c0,13.25-10.75,24-24,24S0,37.25,0,24,10.75,0,24,0s24,10.74,24,24Z"/>
      <g id="Lozenge">
        <path class="cls-1" d="m38.7,17.74s-.29-2.16-1.19-3.11c-1.14-1.24-2.42-1.25-3-1.32-4.2-.32-10.5-.32-10.5-.32h-.01s-6.3,0-10.5.32c-.59.07-1.86.08-3.01,1.32-.9.95-1.19,3.11-1.19,3.11,0,0-.3,2.53-.3,5.06v2.37c0,2.53.3,5.06.3,5.06,0,0,.29,2.15,1.19,3.1,1.14,1.25,2.64,1.21,3.31,1.34,2.4.24,10.2.32,10.2.32,0,0,6.3-.01,10.5-.33.58-.07,1.86-.08,3-1.33.9-.95,1.19-3.1,1.19-3.1,0,0,.3-2.53.3-5.06v-2.37c0-2.53-.3-5.06-.3-5.06Zm-17.79,10.31v-8.79s8.1,4.41,8.1,4.41l-8.1,4.38Z"/>
      </g>
    </g>
  </g>
</svg>